<svg width="287" height="61" viewBox="0 0 287 61" fill="none" xmlns="http://www.w3.org/2000/svg">
<path d="M33.8352 23.3125C32.8636 15.25 26.7614 10.6136 18.6818 10.6136C9.46023 10.6136 2.42045 17.125 2.42045 28.5455C2.42045 39.9318 9.34091 46.4773 18.6818 46.4773C27.6307 46.4773 33.0341 40.5284 33.8352 34.1023L26.3693 34.0682C25.6705 37.8011 22.7386 39.9489 18.8011 39.9489C13.5 39.9489 9.90341 36.0114 9.90341 28.5455C9.90341 21.2841 13.4489 17.142 18.8523 17.142C22.892 17.142 25.8068 19.4773 26.3693 23.3125H33.8352ZM90.6903 30.8636C90.7074 27.4886 92.7188 25.5114 95.6506 25.5114C98.5653 25.5114 100.321 27.4205 100.304 30.625V46H107.565V29.3295C107.565 23.2273 103.986 19.4773 98.5312 19.4773C94.6449 19.4773 91.8324 21.3864 90.6562 24.4375H90.3494V19.8182H83.429V46H90.6903V30.8636ZM127.214 19.8182H122.288V13.5455H115.027V19.8182H111.447V25.2727H115.027V38.9091C114.993 44.0398 118.487 46.5795 123.754 46.358C125.629 46.2898 126.959 45.9148 127.692 45.6761L126.55 40.2727C126.192 40.3409 125.425 40.5114 124.743 40.5114C123.294 40.5114 122.288 39.9659 122.288 37.9545V25.2727H127.214V19.8182ZM139.411 46.4943C143.28 46.4943 145.786 44.8068 147.064 42.3693H147.268V46H154.155V28.3409C154.155 22.1023 148.871 19.4773 143.041 19.4773C136.768 19.4773 132.643 22.4773 131.638 27.25L138.354 27.7955C138.848 26.0568 140.399 24.7784 143.007 24.7784C145.479 24.7784 146.893 26.0227 146.893 28.1705V28.2727C146.893 29.9602 145.104 30.1818 140.553 30.625C135.371 31.1023 130.717 32.8409 130.717 38.6875C130.717 43.8693 134.416 46.4943 139.411 46.4943ZM141.49 41.483C139.257 41.483 137.655 40.4432 137.655 38.4489C137.655 36.4034 139.342 35.3977 141.899 35.0398C143.484 34.8182 146.075 34.4432 146.945 33.8636V36.642C146.945 39.3864 144.678 41.483 141.49 41.483ZM167.05 30.8636C167.067 27.4886 169.078 25.5114 172.01 25.5114C174.925 25.5114 176.68 27.4205 176.663 30.625V46H183.925V29.3295C183.925 23.2273 180.345 19.4773 174.891 19.4773C171.004 19.4773 168.192 21.3864 167.016 24.4375H166.709V19.8182H159.788V46H167.05V30.8636ZM206.438 34.8523C206.455 38.3636 204.051 40.2045 201.443 40.2045C198.699 40.2045 196.926 38.2784 196.909 35.1932V19.8182H189.648V36.4886C189.665 42.608 193.244 46.3409 198.511 46.3409C202.449 46.3409 205.278 44.3125 206.455 41.2443H206.727V46H213.699V19.8182H206.438V34.8523ZM219.507 46H226.768V19.8182H219.507V46ZM223.155 16.4432C225.32 16.4432 227.092 14.7898 227.092 12.7614C227.092 10.75 225.32 9.09659 223.155 9.09659C221.007 9.09659 219.234 10.75 219.234 12.7614C219.234 14.7898 221.007 16.4432 223.155 16.4432ZM246.511 19.8182H241.585V13.5455H234.324V19.8182H230.744V25.2727H234.324V38.9091C234.29 44.0398 237.784 46.5795 243.051 46.358C244.926 46.2898 246.256 45.9148 246.989 45.6761L245.847 40.2727C245.489 40.3409 244.722 40.5114 244.04 40.5114C242.591 40.5114 241.585 39.9659 241.585 37.9545V25.2727H246.511V19.8182ZM255.724 55.8182C261.128 55.8182 263.991 53.0568 265.474 48.8295L275.651 19.8523L267.963 19.8182L262.491 39.0455H262.219L256.798 19.8182H249.162L258.554 46.75L258.128 47.858C257.173 50.3125 255.349 50.4318 252.793 49.6477L251.156 55.0682C252.196 55.5114 253.884 55.8182 255.724 55.8182Z" fill="white"/>
<path d="M57.9306 7C49.354 7 41.7116 13.6017 39.3462 22.9311C38.8588 24.8484 39.9366 26.7204 41.6342 27.4192C43.7804 28.3027 46.2639 27.1166 46.8402 24.8407C48.3281 18.9405 52.8889 14.8203 57.9306 14.8203C62.5417 14.8203 66.7199 18.1726 68.5716 23.3591C68.833 24.0905 68.4387 24.9443 67.5893 25.0692C67.0077 25.155 66.3624 24.8759 66.161 24.3032C64.6831 20.1087 61.4529 17.3984 57.9306 17.3984C53.04 17.3984 48.9072 22.7107 48.9072 29C48.9072 35.2892 53.04 40.6016 57.9306 40.6016C61.974 40.6016 65.6511 36.9131 66.6733 31.8324C66.813 31.135 66.3611 30.4553 65.6637 30.3142C64.9612 30.1682 64.2865 30.6252 64.1455 31.3238C63.3638 35.2061 60.7505 38.0234 57.9306 38.0234C54.4977 38.0234 51.4853 33.8063 51.4853 29C51.4853 24.1937 54.4977 19.9766 57.9306 19.9766C60.3061 19.9766 62.6362 22.0599 63.7289 25.1605C64.4664 27.2489 66.6991 28.1317 68.5729 27.519C70.5968 26.8571 71.7481 24.5858 71 22.493C68.7757 16.2654 63.6458 12.2422 57.9306 12.2422C51.7055 12.2422 46.1175 17.1643 44.34 24.2101C44.1644 24.904 43.3246 25.2312 42.6554 25.0178C42.0364 24.8205 41.6887 24.1754 41.845 23.5656C43.9209 15.3805 50.5349 9.57812 57.9306 9.57812C67.1706 9.57812 74.6884 18.3376 74.6884 29C74.6884 33.2512 73.5139 37.2857 71.2921 40.6682C70.9018 41.2637 71.0667 42.0618 71.6622 42.4533C72.251 42.8413 73.0537 42.6824 73.4472 42.0831C75.946 38.2788 77.2665 33.7546 77.2665 28.9999C77.2666 16.9163 68.5931 7 57.9306 7Z" fill="white"/>
<path d="M70.2586 44.1278C69.7715 43.6053 68.9558 43.5789 68.437 44.061C65.4297 46.8582 61.7966 48.422 57.9307 48.422C49.5039 48.422 42.3562 41.0712 41.305 31.4385C41.2282 30.7298 40.6026 30.2199 39.8838 30.2967C39.1763 30.3735 38.6652 31.0105 38.742 31.718C39.9367 42.6611 48.1859 51.0001 57.9307 51.0001C62.3945 51.0001 66.7489 49.1505 70.1919 45.9493C70.713 45.4646 70.7433 44.6489 70.2586 44.1278Z" fill="white"/>
<path d="M65.3227 41.75C64.9223 41.1609 64.1192 41.006 63.5326 41.4076C61.8244 42.5657 59.8871 43.1788 57.9308 43.1788C52.2635 43.1788 47.4534 38.2239 46.4954 31.3984C46.396 30.6922 45.7401 30.1975 45.0402 30.3008C44.3352 30.4002 43.843 31.051 43.9425 31.756C45.0817 39.8692 50.9643 45.7569 57.9308 45.7569C60.4044 45.7569 62.8428 44.9902 64.9803 43.54C65.5694 43.1409 65.7231 42.3391 65.3227 41.75Z" fill="white"/>
<path d="M70.8202 30.3018C70.1077 30.2024 69.4632 30.6946 69.365 31.3995C69.0062 33.9474 68.0759 36.3355 66.671 38.303C66.2581 38.8834 66.3928 39.6877 66.9719 40.102C67.5599 40.5177 68.3607 40.3752 68.7708 39.8012C70.4136 37.4963 71.5025 34.7154 71.9179 31.7571C72.0173 31.0521 71.5264 30.4013 70.8202 30.3018Z" fill="white"/>
<path d="M57.9292 22.5547C56.6842 22.5547 55.3045 23.9646 54.5769 25.9851C54.3351 26.6548 54.6826 27.3925 55.3523 27.6341C56.0169 27.8808 56.7597 27.5296 57.0013 26.8587C57.2846 26.0731 57.6698 25.5545 57.9304 25.2889C58.4 25.771 59.2182 27.0525 59.2182 29C59.2182 30.9475 58.4 32.2289 57.9304 32.7111C57.6699 32.4455 57.2847 31.9269 57.0015 31.1413C56.7598 30.4703 56.0171 30.1191 55.3525 30.3659C54.6827 30.6076 54.3353 31.3452 54.577 32.0149C55.3045 34.0354 56.6842 35.4453 57.9292 35.4453C59.6803 35.4453 61.7964 32.5701 61.7964 29C61.7964 25.4299 59.6804 22.5547 57.9292 22.5547Z" fill="white"/>
</svg>
