<svg width="406" height="701" viewBox="0 0 406 701" fill="none" xmlns="http://www.w3.org/2000/svg">
<g clip-path="url(#clip0)">
<path d="M-66.6777 52.0117C-66.6777 68.6347 -53.1732 82.1269 -36.535 82.1269C-19.8968 82.1269 -6.39223 68.6347 -6.39223 52.0117" stroke="black" stroke-opacity="0.1" stroke-width="20" stroke-miterlimit="10"/>
<path d="M31.5479 52.0117C31.5479 68.6347 45.0524 82.1269 61.6906 82.1269C78.3288 82.1269 91.8334 68.6347 91.8334 52.0117" stroke="black" stroke-opacity="0.1" stroke-width="20" stroke-miterlimit="10"/>
<path d="M129.773 52.0117C129.773 68.6347 143.278 82.1269 159.916 82.1269C176.554 82.1269 190.096 68.672 190.096 52.0117" stroke="black" stroke-opacity="0.1" stroke-width="20" stroke-miterlimit="10"/>
<path d="M228.035 52.0117C228.035 68.6347 241.54 82.1269 258.178 82.1269C274.816 82.1269 288.321 68.6347 288.321 52.0117" stroke="black" stroke-opacity="0.1" stroke-width="20" stroke-miterlimit="10"/>
<path d="M326.261 52.0117C326.261 68.6347 339.765 82.1269 356.404 82.1269C373.042 82.1269 386.546 68.6347 386.546 52.0117" stroke="black" stroke-opacity="0.1" stroke-width="20" stroke-miterlimit="10"/>
<path d="M42.7386 32.2968C42.7386 15.6738 29.2341 2.18164 12.5959 2.18164C-4.04233 2.18164 -17.5469 15.6738 -17.5469 32.2968" stroke="black" stroke-opacity="0.1" stroke-width="20" stroke-miterlimit="10"/>
<path d="M80.6787 2.18164C80.6787 18.8046 94.1833 32.2968 110.821 32.2968C127.46 32.2968 140.964 18.8046 140.964 2.18164" stroke="black" stroke-opacity="0.1" stroke-width="20" stroke-miterlimit="10"/>
<path d="M178.904 2.18164C178.904 18.8046 192.409 32.2968 209.047 32.2968C225.685 32.2968 239.227 18.8046 239.227 2.18164" stroke="black" stroke-opacity="0.1" stroke-width="20" stroke-miterlimit="10"/>
<path d="M277.129 2.18164C277.129 18.8046 290.633 32.2968 307.272 32.2968C323.91 32.2968 337.452 18.8046 337.452 2.18164" stroke="black" stroke-opacity="0.1" stroke-width="20" stroke-miterlimit="10"/>
<path d="M375.391 2.18164C375.391 18.8046 388.895 32.2968 405.533 32.2968C422.172 32.2968 435.676 18.8046 435.676 2.18164" stroke="black" stroke-opacity="0.1" stroke-width="20" stroke-miterlimit="10"/>
<path d="M-66.6777 155.852C-66.6777 172.475 -53.1732 185.967 -36.535 185.967C-19.8968 185.967 -6.39223 172.475 -6.39223 155.852" stroke="black" stroke-opacity="0.1" stroke-width="20" stroke-miterlimit="10"/>
<path d="M31.5479 155.852C31.5479 172.475 45.0524 185.967 61.6906 185.967C78.3288 185.967 91.8334 172.475 91.8334 155.852" stroke="black" stroke-opacity="0.1" stroke-width="20" stroke-miterlimit="10"/>
<path d="M129.773 155.852C129.773 172.475 143.278 185.967 159.916 185.967C176.554 185.967 190.096 172.475 190.096 155.852" stroke="black" stroke-opacity="0.1" stroke-width="20" stroke-miterlimit="10"/>
<path d="M228.035 155.852C228.035 172.475 241.54 185.967 258.178 185.967C274.816 185.967 288.321 172.475 288.321 155.852" stroke="black" stroke-opacity="0.1" stroke-width="20" stroke-miterlimit="10"/>
<path d="M326.261 155.852C326.261 172.475 339.765 185.967 356.404 185.967C373.042 185.967 386.546 172.475 386.546 155.852" stroke="black" stroke-opacity="0.1" stroke-width="20" stroke-miterlimit="10"/>
<path d="M-17.583 105.98C-17.583 122.603 -4.07846 136.096 12.5597 136.096C29.198 136.096 42.7025 122.603 42.7025 105.98" stroke="black" stroke-opacity="0.1" stroke-width="20" stroke-miterlimit="10"/>
<path d="M80.6787 105.98C80.6787 122.603 94.1833 136.096 110.821 136.096C127.46 136.096 140.964 122.603 140.964 105.98" stroke="black" stroke-opacity="0.1" stroke-width="20" stroke-miterlimit="10"/>
<path d="M178.904 105.98C178.904 122.603 192.409 136.096 209.047 136.096C225.685 136.096 239.19 122.603 239.19 105.98" stroke="black" stroke-opacity="0.1" stroke-width="20" stroke-miterlimit="10"/>
<path d="M337.451 136.096C337.451 119.473 323.947 105.98 307.309 105.98C290.671 105.98 277.166 119.473 277.166 136.096" stroke="black" stroke-width="20" stroke-miterlimit="10"/>
<path d="M375.391 105.98C375.391 122.603 388.895 136.096 405.533 136.096C422.172 136.096 435.676 122.603 435.676 105.98" stroke="black" stroke-opacity="0.1" stroke-width="20" stroke-miterlimit="10"/>
<path d="M-66.6777 258.311C-66.6777 274.934 -53.1732 288.426 -36.535 288.426C-19.8968 288.426 -6.39223 274.934 -6.39223 258.311" stroke="black" stroke-opacity="0.1" stroke-width="20" stroke-miterlimit="10"/>
<path d="M31.5479 258.311C31.5479 274.934 45.0524 288.426 61.6906 288.426C78.3288 288.426 91.8334 274.934 91.8334 258.311" stroke="black" stroke-opacity="0.1" stroke-width="20" stroke-miterlimit="10"/>
<path d="M129.773 258.311C129.773 274.934 143.278 288.426 159.916 288.426C176.554 288.426 190.096 274.971 190.096 258.311" stroke="black" stroke-opacity="0.1" stroke-width="20" stroke-miterlimit="10"/>
<path d="M228.035 258.311C228.035 274.934 241.54 288.426 258.178 288.426C274.816 288.426 288.321 274.934 288.321 258.311" stroke="black" stroke-opacity="0.1" stroke-width="20" stroke-miterlimit="10"/>
<path d="M326.261 258.311C326.261 274.934 339.765 288.426 356.404 288.426C373.042 288.426 386.546 274.934 386.546 258.311" stroke="black" stroke-opacity="0.1" stroke-width="20" stroke-miterlimit="10"/>
<path d="M-17.583 208.477C-17.583 225.1 -4.07846 238.592 12.5597 238.592C29.198 238.592 42.7025 225.1 42.7025 208.477" stroke="black" stroke-opacity="0.1" stroke-width="20" stroke-miterlimit="10"/>
<path d="M80.6787 208.477C80.6787 225.1 94.1833 238.592 110.821 238.592C127.46 238.592 140.964 225.1 140.964 208.477" stroke="black" stroke-opacity="0.1" stroke-width="20" stroke-miterlimit="10"/>
<path d="M178.904 208.477C178.904 225.1 192.409 238.592 209.047 238.592C225.685 238.592 239.19 225.1 239.19 208.477" stroke="black" stroke-opacity="0.1" stroke-width="20" stroke-miterlimit="10"/>
<path d="M277.129 208.477C277.129 225.1 290.633 238.592 307.272 238.592C323.91 238.592 337.414 225.1 337.414 208.477" stroke="black" stroke-opacity="0.1" stroke-width="20" stroke-miterlimit="10"/>
<path d="M375.391 208.477C375.391 225.1 388.895 238.592 405.533 238.592C422.172 238.592 435.676 225.1 435.676 208.477" stroke="black" stroke-opacity="0.1" stroke-width="20" stroke-miterlimit="10"/>
<path d="M-66.6777 362.111C-66.6777 378.734 -53.1732 392.227 -36.535 392.227C-19.8968 392.227 -6.39223 378.734 -6.39223 362.111" stroke="black" stroke-opacity="0.1" stroke-width="20" stroke-miterlimit="10"/>
<path d="M91.8705 392.264C91.8705 375.641 78.3659 362.148 61.7277 362.148C45.0895 362.148 31.585 375.641 31.585 392.264" stroke="#FFB038" stroke-width="20" stroke-miterlimit="10"/>
<path d="M129.773 362.111C129.773 378.734 143.278 392.227 159.916 392.227C176.554 392.227 190.096 378.772 190.096 362.111" stroke="black" stroke-opacity="0.1" stroke-width="20" stroke-miterlimit="10"/>
<path d="M228.035 362.111C228.035 378.734 241.54 392.227 258.178 392.227C274.816 392.227 288.321 378.734 288.321 362.111" stroke="black" stroke-opacity="0.1" stroke-width="20" stroke-miterlimit="10"/>
<path d="M326.261 362.111C326.261 378.734 339.765 392.227 356.404 392.227C373.042 392.227 386.546 378.734 386.546 362.111" stroke="black" stroke-opacity="0.1" stroke-width="20" stroke-miterlimit="10"/>
<path d="M-17.583 312.277C-17.583 328.9 -4.07846 342.393 12.5597 342.393C29.198 342.393 42.7025 328.9 42.7025 312.277" stroke="black" stroke-opacity="0.1" stroke-width="20" stroke-miterlimit="10"/>
<path d="M80.6787 312.277C80.6787 328.9 94.1833 342.393 110.821 342.393C127.46 342.393 140.964 328.9 140.964 312.277" stroke="black" stroke-opacity="0.1" stroke-width="20" stroke-miterlimit="10"/>
<path d="M178.904 312.277C178.904 328.9 192.409 342.393 209.047 342.393C225.685 342.393 239.19 328.9 239.19 312.277" stroke="black" stroke-opacity="0.1" stroke-width="20" stroke-miterlimit="10"/>
<path d="M277.129 312.277C277.129 328.9 290.633 342.393 307.272 342.393C323.91 342.393 337.414 328.9 337.414 312.277" stroke="black" stroke-opacity="0.1" stroke-width="20" stroke-miterlimit="10"/>
<path d="M375.391 312.277C375.391 328.9 388.895 342.393 405.533 342.393C422.172 342.393 435.676 328.9 435.676 312.277" stroke="black" stroke-opacity="0.1" stroke-width="20" stroke-miterlimit="10"/>
<path d="M-66.6777 464.607C-66.6777 481.23 -53.1732 494.723 -36.535 494.723C-19.8968 494.723 -6.39223 481.23 -6.39223 464.607" stroke="black" stroke-opacity="0.1" stroke-width="20" stroke-miterlimit="10"/>
<path d="M31.5479 464.607C31.5479 481.23 45.0524 494.723 61.6906 494.723C78.3288 494.723 91.8334 481.23 91.8334 464.607" stroke="black" stroke-opacity="0.1" stroke-width="20" stroke-miterlimit="10"/>
<path d="M129.773 464.607C129.773 481.23 143.278 494.723 159.916 494.723C176.554 494.723 190.059 481.23 190.059 464.607" stroke="black" stroke-opacity="0.1" stroke-width="20" stroke-miterlimit="10"/>
<path d="M228.035 464.607C228.035 481.23 241.54 494.723 258.178 494.723C274.816 494.723 288.321 481.23 288.321 464.607" stroke="black" stroke-opacity="0.1" stroke-width="20" stroke-miterlimit="10"/>
<path d="M326.261 464.607C326.261 481.23 339.765 494.723 356.404 494.723C373.042 494.723 386.546 481.23 386.546 464.607" stroke="black" stroke-opacity="0.1" stroke-width="20" stroke-miterlimit="10"/>
<path d="M-17.583 414.773C-17.583 431.396 -4.07846 444.889 12.5597 444.889C29.198 444.889 42.7025 431.396 42.7025 414.773" stroke="black" stroke-opacity="0.1" stroke-width="20" stroke-miterlimit="10"/>
<path d="M80.6787 414.773C80.6787 431.396 94.1833 444.889 110.821 444.889C127.46 444.889 140.964 431.396 140.964 414.773" stroke="black" stroke-opacity="0.1" stroke-width="20" stroke-miterlimit="10"/>
<path d="M178.904 414.773C178.904 431.396 192.409 444.889 209.047 444.889C225.685 444.889 239.19 431.396 239.19 414.773" stroke="black" stroke-opacity="0.1" stroke-width="20" stroke-miterlimit="10"/>
<path d="M277.129 414.773C277.129 431.396 290.633 444.889 307.272 444.889C323.91 444.889 337.414 431.396 337.414 414.773" stroke="black" stroke-opacity="0.1" stroke-width="20" stroke-miterlimit="10"/>
<path d="M375.391 414.773C375.391 431.396 388.895 444.889 405.533 444.889C422.172 444.889 435.676 431.396 435.676 414.773" stroke="black" stroke-opacity="0.1" stroke-width="20" stroke-miterlimit="10"/>
<path d="M-66.6777 568.406C-66.6777 585.029 -53.1732 598.521 -36.535 598.521C-19.8968 598.521 -6.39223 585.029 -6.39223 568.406" stroke="black" stroke-opacity="0.1" stroke-width="20" stroke-miterlimit="10"/>
<path d="M31.5479 568.406C31.5479 585.029 45.0524 598.521 61.6906 598.521C78.3288 598.521 91.8334 585.029 91.8334 568.406" stroke="black" stroke-opacity="0.1" stroke-width="20" stroke-miterlimit="10"/>
<path d="M129.773 568.406C129.773 585.029 143.278 598.521 159.916 598.521C176.554 598.521 190.059 585.029 190.059 568.406" stroke="black" stroke-opacity="0.1" stroke-width="20" stroke-miterlimit="10"/>
<path d="M228.035 568.406C228.035 585.029 241.54 598.521 258.178 598.521C274.816 598.521 288.321 585.029 288.321 568.406" stroke="black" stroke-opacity="0.1" stroke-width="20" stroke-miterlimit="10"/>
<path d="M326.261 568.406C326.261 585.029 339.765 598.521 356.404 598.521C373.042 598.521 386.546 585.029 386.546 568.406" stroke="black" stroke-opacity="0.1" stroke-width="20" stroke-miterlimit="10"/>
<path d="M-17.583 518.576C-17.583 535.199 -4.07846 548.691 12.5597 548.691C29.198 548.691 42.7025 535.199 42.7025 518.576" stroke="black" stroke-opacity="0.1" stroke-width="20" stroke-miterlimit="10"/>
<path d="M80.6787 518.576C80.6787 535.199 94.1833 548.691 110.821 548.691C127.46 548.691 140.964 535.199 140.964 518.576" stroke="black" stroke-opacity="0.1" stroke-width="20" stroke-miterlimit="10"/>
<path d="M178.904 518.576C178.904 535.199 192.409 548.691 209.047 548.691C225.685 548.691 239.19 535.199 239.19 518.576" stroke="black" stroke-opacity="0.1" stroke-width="20" stroke-miterlimit="10"/>
<path d="M337.451 548.691C337.451 532.068 323.947 518.576 307.309 518.576C290.671 518.576 277.166 532.068 277.166 548.691" stroke="black" stroke-width="20" stroke-miterlimit="10"/>
<path d="M375.391 518.576C375.391 535.199 388.895 548.691 405.533 548.691C422.172 548.691 435.676 535.199 435.676 518.576" stroke="black" stroke-opacity="0.1" stroke-width="20" stroke-miterlimit="10"/>
<path d="M-66.6777 670.902C-66.6777 687.525 -53.1732 701.017 -36.535 701.017C-19.8968 701.017 -6.39223 687.525 -6.39223 670.902" stroke="black" stroke-opacity="0.1" stroke-width="20" stroke-miterlimit="10"/>
<path d="M31.5479 670.902C31.5479 687.525 45.0524 701.017 61.6906 701.017C78.3288 701.017 91.8334 687.525 91.8334 670.902" stroke="black" stroke-opacity="0.1" stroke-width="20" stroke-miterlimit="10"/>
<path d="M190.095 701.017C190.095 684.395 176.591 670.902 159.952 670.902C143.314 670.902 129.81 684.395 129.81 701.017" stroke="black" stroke-opacity="0.1" stroke-width="20" stroke-miterlimit="10"/>
<path d="M228.035 670.902C228.035 687.525 241.54 701.017 258.178 701.017C274.816 701.017 288.321 687.525 288.321 670.902" stroke="black" stroke-opacity="0.1" stroke-width="20" stroke-miterlimit="10"/>
<path d="M326.261 670.902C326.261 687.525 339.765 701.017 356.404 701.017C373.042 701.017 386.546 687.525 386.546 670.902" stroke="black" stroke-opacity="0.1" stroke-width="20" stroke-miterlimit="10"/>
<path d="M-17.583 621.074C-17.583 637.697 -4.07846 651.189 12.5597 651.189C29.198 651.189 42.7025 637.697 42.7025 621.074" stroke="black" stroke-opacity="0.1" stroke-width="20" stroke-miterlimit="10"/>
<path d="M80.6787 621.074C80.6787 637.697 94.1833 651.189 110.821 651.189C127.46 651.189 140.964 637.697 140.964 621.074" stroke="black" stroke-opacity="0.1" stroke-width="20" stroke-miterlimit="10"/>
<path d="M178.904 621.074C178.904 637.697 192.409 651.189 209.047 651.189C225.685 651.189 239.19 637.697 239.19 621.074" stroke="black" stroke-opacity="0.1" stroke-width="20" stroke-miterlimit="10"/>
<path d="M277.129 621.074C277.129 637.697 290.633 651.189 307.272 651.189C323.91 651.189 337.414 637.697 337.414 621.074" stroke="black" stroke-opacity="0.1" stroke-width="20" stroke-miterlimit="10"/>
<path d="M375.391 621.074C375.391 637.697 388.895 651.189 405.533 651.189C422.172 651.189 435.676 637.697 435.676 621.074" stroke="black" stroke-opacity="0.1" stroke-width="20" stroke-miterlimit="10"/>
</g>
<defs>
<clipPath id="clip0">
<rect width="412" height="701" fill="white" transform="translate(-6)"/>
</clipPath>
</defs>
</svg>
