<svg width="200" height="42" viewBox="0 0 200 42" fill="none" xmlns="http://www.w3.org/2000/svg">
<path d="M6.39457 5.91831H21.3907L20.8248 0H0V41.3155H6.39457V27.6752H17.4294L17.9953 21.7569H6.39457V5.91831Z" fill="black"/>
<path d="M53.2397 41.3155L46.7886 25.4206C50.9196 22.4896 53.1266 18.2622 53.1266 13.8094C53.1266 5.97468 46.3925 0 39.2622 0H26.1901V41.3155H32.6413V27.6752H39.2622C39.7715 27.6752 40.2242 27.6188 40.677 27.5624L46.2793 41.3155H53.2397ZM32.6413 22.0387V5.63649H39.2622C43.6762 5.63649 46.9018 9.6384 46.9018 13.8094C46.9018 18.3186 43.4498 22.0387 39.2622 22.0387H32.6413Z" fill="black"/>
<path d="M64.9789 12.6279C64.9789 10.8465 63.5347 9.40235 61.7533 9.40235C59.9719 9.40235 58.5277 10.8465 58.5277 12.6279V41.3155H64.9789V12.6279Z" fill="black"/>
<path d="M98.8505 0H71.7444L71.1785 5.91831H88.3816L69.4808 41.3155H96.587L97.1529 35.3972H79.9498L98.8505 0Z" fill="black"/>
<path d="M124.876 0V21.7569H110.106V0H103.655V41.3155H110.106V27.6752H124.876V41.3155H131.327V0H124.876Z" fill="black"/>
<path d="M164.47 0H158.358V28.3515C158.358 32.3534 154.68 35.7353 150.832 35.7353C146.814 35.7353 143.702 32.128 143.702 28.3515V0H137.251V28.4079C137.251 36.0735 143.872 41.9355 150.832 41.9355C158.472 41.9355 164.47 35.6226 164.47 28.8588V0Z" fill="black"/>
<path d="M200 27.7879C200 22.6023 197.001 18.0931 192.983 15.9513C194.171 14.2603 194.907 12.2312 194.907 10.033C194.907 4.39646 190.097 0 184.778 0H170.404V41.3155H186.532C193.945 41.3155 200 35.1153 200 27.7879ZM176.855 35.6226V20.1223H186.136C189.588 20.1223 193.096 22.6023 193.096 27.7879C193.096 33.0862 189.418 35.6226 186.136 35.6226H176.855ZM184.778 5.69285C187.041 5.69285 188.965 7.83472 188.965 10.033C188.965 13.5276 186.475 14.7112 184.155 14.7112H176.855V5.69285H184.778Z" fill="black"/>
<circle r="3.76344" transform="matrix(-1 0 0 1 61.8284 3.76344)" fill="#FFB038"/>
</svg>
