<svg width="223" height="47" viewBox="0 0 223 47" fill="none" xmlns="http://www.w3.org/2000/svg">
<path d="M7.12994 6.59892H23.8506L23.2196 0H0V46.0667H7.12994V30.8578H19.4338L20.0648 24.2589H7.12994V6.59892Z" fill="black"/>
<path d="M59.3623 46.0667L52.1693 28.3439C56.7753 25.0759 59.2361 20.3624 59.2361 15.3975C59.2361 6.66177 51.7276 0 43.7774 0H29.202V46.0667H36.395V30.8578H43.7774C44.3452 30.8578 44.85 30.795 45.3548 30.7321L51.6014 46.0667H59.3623ZM36.395 24.5731V6.28469H43.7774C48.6989 6.28469 52.2955 10.7468 52.2955 15.3975C52.2955 20.4252 48.4465 24.5731 43.7774 24.5731H36.395Z" fill="black"/>
<path d="M72.4514 14.0801C72.4514 12.0938 70.8412 10.4836 68.8549 10.4836C66.8686 10.4836 65.2584 12.0938 65.2584 14.0801V46.0667H72.4514V14.0801Z" fill="black"/>
<path d="M110.218 0H79.995L79.364 6.59892H98.5454L77.4711 46.0667H107.694L108.325 39.4678H89.144L110.218 0Z" fill="black"/>
<path d="M139.237 0V24.2589H122.769V0H115.576V46.0667H122.769V30.8578H139.237V46.0667H146.43V0H139.237Z" fill="black"/>
<path d="M183.384 0H176.57V31.612C176.57 36.0741 172.468 39.8449 168.178 39.8449C163.698 39.8449 160.228 35.8227 160.228 31.612V0H153.034V31.6748C153.034 40.222 160.417 46.7581 168.178 46.7581C176.696 46.7581 183.384 39.7192 183.384 32.1776V0Z" fill="black"/>
<path d="M223 30.9835C223 25.2016 219.656 20.1738 215.176 17.7857C216.501 15.9003 217.321 13.6378 217.321 11.1867C217.321 4.90206 211.958 0 206.027 0H190V46.0667H207.983C216.249 46.0667 223 39.1536 223 30.9835ZM197.193 39.7192V22.4363H207.541C211.39 22.4363 215.302 25.2016 215.302 30.9835C215.302 36.8911 211.201 39.7192 207.541 39.7192H197.193ZM206.027 6.34753C208.551 6.34753 210.696 8.73571 210.696 11.1867C210.696 15.0832 207.92 16.403 205.333 16.403H197.193V6.34753H206.027Z" fill="black"/>
</svg>
