<svg width="719" height="698" viewBox="0 0 719 698" fill="none" xmlns="http://www.w3.org/2000/svg">
<g filter="url(#filter0_f)">
<path d="M233.099 104.355C342.76 47.0856 419.457 77.3562 441.853 120.24C464.248 163.124 342.76 151.425 233.099 208.694C123.438 265.963 100.691 414.02 78.2957 371.136C51.4384 319.709 123.438 161.624 233.099 104.355Z" fill="url(#paint0_linear)"/>
</g>
<g filter="url(#filter1_f)">
<ellipse rx="250.785" ry="253.742" transform="matrix(0.5 0.866025 0.866025 -0.5 373.86 353.058)" fill="url(#paint1_linear)"/>
</g>
<ellipse rx="220.711" ry="222.854" transform="matrix(0.5 0.866025 0.866025 -0.5 312.935 390.423)" fill="url(#paint2_linear)"/>
<g filter="url(#filter2_f)">
<ellipse rx="113.69" ry="73.4315" transform="matrix(0.5 0.866025 0.866025 -0.5 210.439 453.175)" fill="#F8D980"/>
</g>
<defs>
<filter id="filter0_f" x="0.660156" y="0.847656" width="515.885" height="449.971" filterUnits="userSpaceOnUse" color-interpolation-filters="sRGB">
<feFlood flood-opacity="0" result="BackgroundImageFix"/>
<feBlend mode="normal" in="SourceGraphic" in2="BackgroundImageFix" result="shape"/>
<feGaussianBlur stdDeviation="36" result="effect1_foregroundBlur"/>
</filter>
<filter id="filter1_f" x="51.8105" y="32.4902" width="644.1" height="641.137" filterUnits="userSpaceOnUse" color-interpolation-filters="sRGB">
<feFlood flood-opacity="0" result="BackgroundImageFix"/>
<feBlend mode="normal" in="SourceGraphic" in2="BackgroundImageFix" result="shape"/>
<feGaussianBlur stdDeviation="34.5" result="effect1_foregroundBlur"/>
</filter>
<filter id="filter2_f" x="31.1406" y="254.064" width="358.596" height="398.221" filterUnits="userSpaceOnUse" color-interpolation-filters="sRGB">
<feFlood flood-opacity="0" result="BackgroundImageFix"/>
<feBlend mode="normal" in="SourceGraphic" in2="BackgroundImageFix" result="shape"/>
<feGaussianBlur stdDeviation="47" result="effect1_foregroundBlur"/>
</filter>
<linearGradient id="paint0_linear" x1="31.2747" y1="288.016" x2="250.902" y2="129.335" gradientUnits="userSpaceOnUse">
<stop offset="0.182292" stop-color="#F6C756"/>
<stop offset="1" stop-color="#BF4EB0"/>
</linearGradient>
<linearGradient id="paint1_linear" x1="250.785" y1="2.4084e-07" x2="246.697" y2="451.379" gradientUnits="userSpaceOnUse">
<stop stop-color="#F6CF5B"/>
<stop offset="0.505208" stop-color="#F3B449"/>
<stop offset="1" stop-color="#F27E2A"/>
</linearGradient>
<linearGradient id="paint2_linear" x1="220.711" y1="0" x2="220.711" y2="445.708" gradientUnits="userSpaceOnUse">
<stop stop-color="#F6CF5B"/>
<stop offset="0.505208" stop-color="#F3B449"/>
<stop offset="1" stop-color="#F27E2A" stop-opacity="0.05"/>
</linearGradient>
</defs>
</svg>
