<?xml version="1.0" encoding="UTF-8"?><svg xmlns="http://www.w3.org/2000/svg" xmlns:xlink="http://www.w3.org/1999/xlink" width="1560" zoomAndPan="magnify" viewBox="0 0 1560 225" height="225" preserveAspectRatio="xMidYMid meet" version="1.0"><defs><g><g id="glyph-0-0"/><g id="glyph-0-1"><path d="M 80.78125 -120.640625 L 117.265625 -120.640625 L 77.734375 0 L 39.359375 0 L 0 -120.640625 L 36.640625 -120.640625 L 53.0625 -59.5 C 56.46875 -45.90625 58.335938 -36.441406 58.671875 -31.109375 C 59.054688 -34.960938 59.828125 -39.773438 60.984375 -45.546875 C 62.140625 -51.328125 63.15625 -55.867188 64.03125 -59.171875 Z M 80.78125 -120.640625 "/></g><g id="glyph-0-2"><path d="M 72.125 0 L 65.9375 -12.375 L 65.265625 -12.375 C 60.921875 -6.988281 56.492188 -3.300781 51.984375 -1.3125 C 47.472656 0.664062 41.644531 1.65625 34.5 1.65625 C 25.695312 1.65625 18.765625 -0.984375 13.703125 -6.265625 C 8.640625 -11.546875 6.109375 -18.972656 6.109375 -28.546875 C 6.109375 -38.503906 9.570312 -45.914062 16.5 -50.78125 C 23.4375 -55.65625 33.476562 -58.394531 46.625 -59 L 62.21875 -59.5 L 62.21875 -60.8125 C 62.21875 -68.519531 58.421875 -72.375 50.828125 -72.375 C 44.003906 -72.375 35.34375 -70.0625 24.84375 -65.4375 L 15.515625 -86.734375 C 26.410156 -92.335938 40.164062 -95.140625 56.78125 -95.140625 C 68.769531 -95.140625 78.050781 -92.171875 84.625 -86.234375 C 91.195312 -80.296875 94.484375 -71.988281 94.484375 -61.3125 L 94.484375 0 Z M 48.1875 -21.125 C 52.09375 -21.125 55.4375 -22.359375 58.21875 -24.828125 C 61 -27.304688 62.390625 -30.53125 62.390625 -34.5 L 62.390625 -41.75 L 54.953125 -41.421875 C 44.335938 -41.035156 39.03125 -37.128906 39.03125 -29.703125 C 39.03125 -23.984375 42.082031 -21.125 48.1875 -21.125 Z M 48.1875 -21.125 "/></g><g id="glyph-0-3"><path d="M 42.421875 -52.5625 C 46.328125 -58.78125 49.65625 -63.625 52.40625 -67.09375 L 73.359375 -93.5 L 109.34375 -93.5 L 76.90625 -53.71875 L 111.40625 0 L 74.515625 0 L 54.046875 -33.5 L 43.578125 -25.5 L 43.578125 0 L 11.140625 0 L 11.140625 -128.40625 L 43.578125 -128.40625 L 43.578125 -77.90625 C 43.578125 -69.257812 42.96875 -60.8125 41.75 -52.5625 Z M 42.421875 -52.5625 "/></g><g id="glyph-0-4"><path d="M 56.28125 1.65625 C 40.707031 1.65625 28.613281 -2.484375 20 -10.765625 C 11.394531 -19.046875 7.09375 -30.832031 7.09375 -46.125 C 7.09375 -61.914062 11.082031 -74.03125 19.0625 -82.46875 C 27.039062 -90.914062 38.425781 -95.140625 53.21875 -95.140625 C 67.300781 -95.140625 78.179688 -91.46875 85.859375 -84.125 C 93.535156 -76.78125 97.375 -66.207031 97.375 -52.40625 L 97.375 -38.046875 L 39.6875 -38.046875 C 39.90625 -32.816406 41.816406 -28.71875 45.421875 -25.75 C 49.023438 -22.78125 53.9375 -21.296875 60.15625 -21.296875 C 65.820312 -21.296875 71.035156 -21.832031 75.796875 -22.90625 C 80.554688 -23.976562 85.710938 -25.804688 91.265625 -28.390625 L 91.265625 -5.203125 C 86.203125 -2.617188 80.972656 -0.832031 75.578125 0.15625 C 70.191406 1.15625 63.757812 1.65625 56.28125 1.65625 Z M 54.375 -73.1875 C 50.582031 -73.1875 47.40625 -71.988281 44.84375 -69.59375 C 42.289062 -67.207031 40.796875 -63.457031 40.359375 -58.34375 L 68.078125 -58.34375 C 67.960938 -62.851562 66.679688 -66.453125 64.234375 -69.140625 C 61.785156 -71.835938 58.5 -73.1875 54.375 -73.1875 Z M 54.375 -73.1875 "/></g><g id="glyph-0-5"><path d="M 43.40625 0 L 11.140625 0 L 11.140625 -128.40625 L 43.40625 -128.40625 Z M 43.40625 0 "/></g><g id="glyph-0-6"/><g id="glyph-0-7"><path d="M 125.921875 -60.484375 C 125.921875 -40.179688 120.941406 -24.75 110.984375 -14.1875 C 101.023438 -3.625 86.445312 1.65625 67.25 1.65625 C 48.320312 1.65625 33.8125 -3.648438 23.71875 -14.265625 C 13.625 -24.890625 8.578125 -40.351562 8.578125 -60.65625 C 8.578125 -80.726562 13.597656 -96.0625 23.640625 -106.65625 C 33.679688 -117.25 48.273438 -122.546875 67.421875 -122.546875 C 86.617188 -122.546875 101.164062 -117.289062 111.0625 -106.78125 C 120.96875 -96.269531 125.921875 -80.835938 125.921875 -60.484375 Z M 42.90625 -60.484375 C 42.90625 -37.160156 51.019531 -25.5 67.25 -25.5 C 75.5 -25.5 81.617188 -28.332031 85.609375 -34 C 89.597656 -39.664062 91.59375 -48.492188 91.59375 -60.484375 C 91.59375 -72.535156 89.570312 -81.4375 85.53125 -87.1875 C 81.488281 -92.9375 75.453125 -95.8125 67.421875 -95.8125 C 51.078125 -95.8125 42.90625 -84.035156 42.90625 -60.484375 Z M 42.90625 -60.484375 "/></g><g id="glyph-0-8"><path d="M 70.140625 0 L 70.140625 -51 C 70.140625 -57.21875 69.242188 -61.90625 67.453125 -65.0625 C 65.671875 -68.226562 62.800781 -69.8125 58.84375 -69.8125 C 53.394531 -69.8125 49.457031 -67.640625 47.03125 -63.296875 C 44.613281 -58.953125 43.40625 -51.5 43.40625 -40.9375 L 43.40625 0 L 11.140625 0 L 11.140625 -93.5 L 35.484375 -93.5 L 39.53125 -81.9375 L 41.421875 -81.9375 C 44.171875 -86.34375 47.976562 -89.644531 52.84375 -91.84375 C 57.71875 -94.039062 63.316406 -95.140625 69.640625 -95.140625 C 79.984375 -95.140625 88.03125 -92.140625 93.78125 -86.140625 C 99.53125 -80.148438 102.40625 -71.707031 102.40625 -60.8125 L 102.40625 0 Z M 70.140625 0 "/></g><g id="glyph-0-9"><path d="M 43.578125 0 L 11.3125 0 L 11.3125 -93.5 L 43.578125 -93.5 Z M 10.484375 -116.765625 C 10.484375 -121.609375 11.828125 -125.210938 14.515625 -127.578125 C 17.210938 -129.941406 21.5625 -131.125 27.5625 -131.125 C 33.5625 -131.125 37.9375 -129.910156 40.6875 -127.484375 C 43.4375 -125.066406 44.8125 -121.492188 44.8125 -116.765625 C 44.8125 -107.304688 39.0625 -102.578125 27.5625 -102.578125 C 16.175781 -102.578125 10.484375 -107.304688 10.484375 -116.765625 Z M 10.484375 -116.765625 "/></g></g></defs><g fill="rgb(100%, 99.21875%, 99.21875%)" fill-opacity="1"><use x="1.5" y="166.850006" xmlns:xlink="http://www.w3.org/1999/xlink" xlink:href="#glyph-0-1" xlink:type="simple" xlink:actuate="onLoad" xlink:show="embed"/></g><g fill="rgb(100%, 99.21875%, 99.21875%)" fill-opacity="1"><use x="118.757544" y="166.850006" xmlns:xlink="http://www.w3.org/1999/xlink" xlink:href="#glyph-0-2" xlink:type="simple" xlink:actuate="onLoad" xlink:show="embed"/></g><g fill="rgb(100%, 99.21875%, 99.21875%)" fill-opacity="1"><use x="224.050039" y="166.850006" xmlns:xlink="http://www.w3.org/1999/xlink" xlink:href="#glyph-0-3" xlink:type="simple" xlink:actuate="onLoad" xlink:show="embed"/></g><g fill="rgb(100%, 99.21875%, 99.21875%)" fill-opacity="1"><use x="335.448838" y="166.850006" xmlns:xlink="http://www.w3.org/1999/xlink" xlink:href="#glyph-0-4" xlink:type="simple" xlink:actuate="onLoad" xlink:show="embed"/></g><g fill="rgb(100%, 99.21875%, 99.21875%)" fill-opacity="1"><use x="439.916134" y="166.850006" xmlns:xlink="http://www.w3.org/1999/xlink" xlink:href="#glyph-0-4" xlink:type="simple" xlink:actuate="onLoad" xlink:show="embed"/></g><g fill="rgb(100%, 99.21875%, 99.21875%)" fill-opacity="1"><use x="544.38343" y="166.850006" xmlns:xlink="http://www.w3.org/1999/xlink" xlink:href="#glyph-0-5" xlink:type="simple" xlink:actuate="onLoad" xlink:show="embed"/></g><g fill="rgb(100%, 99.21875%, 99.21875%)" fill-opacity="1"><use x="599.010106" y="166.850006" xmlns:xlink="http://www.w3.org/1999/xlink" xlink:href="#glyph-0-6" xlink:type="simple" xlink:actuate="onLoad" xlink:show="embed"/></g><g fill="rgb(100%, 99.21875%, 99.21875%)" fill-opacity="1"><use x="642.909458" y="166.850006" xmlns:xlink="http://www.w3.org/1999/xlink" xlink:href="#glyph-0-7" xlink:type="simple" xlink:actuate="onLoad" xlink:show="embed"/></g><g fill="rgb(100%, 99.21875%, 99.21875%)" fill-opacity="1"><use x="777.578215" y="166.850006" xmlns:xlink="http://www.w3.org/1999/xlink" xlink:href="#glyph-0-8" xlink:type="simple" xlink:actuate="onLoad" xlink:show="embed"/></g><g fill="rgb(100%, 99.21875%, 99.21875%)" fill-opacity="1"><use x="890.792413" y="166.850006" xmlns:xlink="http://www.w3.org/1999/xlink" xlink:href="#glyph-0-5" xlink:type="simple" xlink:actuate="onLoad" xlink:show="embed"/></g><g fill="rgb(100%, 99.21875%, 99.21875%)" fill-opacity="1"><use x="945.419089" y="166.850006" xmlns:xlink="http://www.w3.org/1999/xlink" xlink:href="#glyph-0-9" xlink:type="simple" xlink:actuate="onLoad" xlink:show="embed"/></g><g fill="rgb(100%, 99.21875%, 99.21875%)" fill-opacity="1"><use x="1000.375813" y="166.850006" xmlns:xlink="http://www.w3.org/1999/xlink" xlink:href="#glyph-0-8" xlink:type="simple" xlink:actuate="onLoad" xlink:show="embed"/></g><g fill="rgb(100%, 99.21875%, 99.21875%)" fill-opacity="1"><use x="1113.590012" y="166.850006" xmlns:xlink="http://www.w3.org/1999/xlink" xlink:href="#glyph-0-4" xlink:type="simple" xlink:actuate="onLoad" xlink:show="embed"/></g></svg>